<svg width="50" height="51" viewBox="0 0 50 51" fill="none" xmlns="http://www.w3.org/2000/svg">
<path d="M25.6533 23.371C23.9038 23.3526 22.1988 22.817 20.753 21.8316C19.3072 20.8462 18.1853 19.455 17.5285 17.8333C16.8716 16.2116 16.7093 14.4318 17.0619 12.7181C17.4145 11.0043 18.2662 9.43314 19.5099 8.20244C20.7536 6.97173 22.3335 6.13648 24.0509 5.80186C25.7683 5.46723 27.5463 5.64819 29.161 6.32194C30.7757 6.99569 32.1551 8.13212 33.1253 9.58815C34.0955 11.0442 34.6132 12.7547 34.6133 14.5044C34.5969 16.8671 33.6446 19.1269 31.9652 20.7888C30.2858 22.4508 28.0161 23.3793 25.6533 23.371ZM25.6533 8.74881C24.5192 8.7672 23.4157 9.12033 22.4816 9.76384C21.5474 10.4073 20.8243 11.3125 20.4029 12.3657C19.9816 13.4189 19.8808 14.5731 20.1133 15.6833C20.3458 16.7936 20.9012 17.8104 21.7097 18.606C22.5183 19.4016 23.5439 19.9406 24.6577 20.1552C25.7716 20.3698 26.924 20.2505 27.9702 19.8123C29.0165 19.3741 29.91 18.6364 30.5383 17.6921C31.1667 16.7477 31.5021 15.6387 31.5022 14.5044C31.4858 12.9668 30.8614 11.4983 29.7654 10.4198C28.6694 9.34125 27.191 8.7405 25.6533 8.74881Z" fill="#A6A6A6"/>
<path d="M25.6533 23.371C23.9038 23.3526 22.1988 22.817 20.753 21.8316C19.3072 20.8462 18.1853 19.455 17.5285 17.8333C16.8716 16.2116 16.7093 14.4318 17.0619 12.7181C17.4145 11.0043 18.2662 9.43314 19.5099 8.20244C20.7536 6.97173 22.3335 6.13648 24.0509 5.80186C25.7683 5.46723 27.5463 5.64819 29.161 6.32194C30.7757 6.99569 32.1551 8.13212 33.1253 9.58815C34.0955 11.0442 34.6132 12.7547 34.6133 14.5044C34.5969 16.8671 33.6446 19.1269 31.9652 20.7888C30.2858 22.4508 28.0161 23.3793 25.6533 23.371ZM25.6533 8.74881C24.5192 8.7672 23.4157 9.12033 22.4816 9.76384C21.5474 10.4073 20.8243 11.3125 20.4029 12.3657C19.9816 13.4189 19.8808 14.5731 20.1133 15.6833C20.3458 16.7936 20.9012 17.8104 21.7097 18.606C22.5183 19.4016 23.5439 19.9406 24.6577 20.1552C25.7716 20.3698 26.924 20.2505 27.9702 19.8123C29.0165 19.3741 29.91 18.6364 30.5383 17.6921C31.1667 16.7477 31.5021 15.6387 31.5022 14.5044C31.4858 12.9668 30.8614 11.4983 29.7654 10.4198C28.6694 9.34125 27.191 8.7405 25.6533 8.74881Z" fill="#A6A6A6"/>
<path d="M31.0822 25.4555C24.1826 24.2549 17.0797 25.3477 10.86 28.5666C10.4185 28.8118 10.0529 29.1736 9.80325 29.6126C9.55359 30.0516 9.42946 30.5507 9.44445 31.0555V36.5933C9.44445 37.0059 9.60834 37.4015 9.90006 37.6932C10.1918 37.985 10.5874 38.1488 11 38.1488C11.4126 38.1488 11.8082 37.985 12.1 37.6932C12.3917 37.4015 12.5556 37.0059 12.5556 36.5933V31.2577C18.323 28.3638 24.8818 27.4456 31.2222 28.6444L31.0822 25.4555Z" fill="#A6A6A6"/>
<path d="M48.3333 32.2222H37.9111V29.9199C37.9111 29.5074 37.7472 29.1117 37.4555 28.82C37.1638 28.5283 36.7681 28.3644 36.3556 28.3644C35.943 28.3644 35.5473 28.5283 35.2556 28.82C34.9639 29.1117 34.8 29.5074 34.8 29.9199V32.2222H23.4444C23.0319 32.2222 22.6362 32.386 22.3445 32.6778C22.0528 32.9695 21.8889 33.3652 21.8889 33.7777V49.3333C21.8889 49.7458 22.0528 50.1415 22.3445 50.4332C22.6362 50.7249 23.0319 50.8888 23.4444 50.8888H48.3333C48.7459 50.8888 49.1416 50.7249 49.4333 50.4332C49.725 50.1415 49.8889 49.7458 49.8889 49.3333V33.7777C49.8889 33.3652 49.725 32.9695 49.4333 32.6778C49.1416 32.386 48.7459 32.2222 48.3333 32.2222ZM46.7778 47.7777H25V35.3333H34.8V35.971C34.8 36.3836 34.9639 36.7793 35.2556 37.071C35.5473 37.3627 35.943 37.5266 36.3556 37.5266C36.7681 37.5266 37.1638 37.3627 37.4555 37.071C37.7472 36.7793 37.9111 36.3836 37.9111 35.971V35.3333H46.7778V47.7777Z" fill="#A6A6A6"/>
<path d="M40.1978 40.6533H30.9267V42.8311H40.1978V40.6533Z" fill="#A6A6A6"/>
<path d="M13.8622 17.0399C9.55558 17.112 5.32362 18.1766 1.49556 20.151C1.07923 20.3709 0.730501 20.6999 0.486649 21.1026C0.242796 21.5054 0.112992 21.9669 0.111115 22.4377V27.2599C0.111115 27.6725 0.275003 28.0681 0.566726 28.3599C0.858449 28.6516 1.25411 28.8155 1.66667 28.8155C2.07923 28.8155 2.47489 28.6516 2.76661 28.3599C3.05834 28.0681 3.22223 27.6725 3.22223 27.2599V22.7488C6.8798 20.9282 10.9293 20.036 15.0133 20.151C14.479 19.1761 14.0911 18.1278 13.8622 17.0399Z" fill="#A6A6A6"/>
<path d="M48.5044 20.1355C45.0711 18.3345 41.2978 17.2746 37.4289 17.0244C37.2011 18.1104 36.8187 19.1581 36.2933 20.1355C39.9381 20.2228 43.5185 21.1152 46.7778 22.7489V27.26C46.7778 27.6725 46.9417 28.0682 47.2334 28.3599C47.5251 28.6516 47.9208 28.8155 48.3333 28.8155C48.7459 28.8155 49.1416 28.6516 49.4333 28.3599C49.725 28.0682 49.8889 27.6725 49.8889 27.26V22.4377C49.8898 21.9643 49.7614 21.4995 49.5174 21.0938C49.2734 20.688 48.9231 20.3567 48.5044 20.1355Z" fill="#A6A6A6"/>
<path d="M13.5822 14.5043C13.5822 14.1466 13.5822 13.8043 13.5822 13.4621C12.3636 13.299 11.2549 12.6723 10.4868 11.7123C9.71868 10.7523 9.35042 9.53303 9.45866 8.30834C9.5669 7.08366 10.1433 5.9479 11.0679 5.1375C11.9924 4.3271 13.1939 3.9045 14.4222 3.95768C15.6998 3.95537 16.9278 4.45214 17.8444 5.34212C18.6532 4.67507 19.5414 4.11078 20.4889 3.66213C19.4305 2.44515 18.0282 1.57743 16.4668 1.17334C14.9054 0.76926 13.2583 0.847776 11.7424 1.39854C10.2265 1.94931 8.9131 2.94648 7.97527 4.25861C7.03744 5.57074 6.51921 7.13625 6.48889 8.74879C6.52154 10.7224 7.28876 12.613 8.64069 14.0512C9.99263 15.4894 11.8322 16.372 13.8 16.5266C13.668 15.8602 13.5952 15.1835 13.5822 14.5043Z" fill="#A6A6A6"/>
<path d="M35.5311 0.84662C34.4621 0.846855 33.4039 1.06021 32.4183 1.4742C31.4328 1.88819 30.5396 2.49452 29.7911 3.25773C30.8427 3.63879 31.8372 4.16218 32.7467 4.81329C33.4729 4.30918 34.3223 4.0116 35.2043 3.9523C36.0864 3.893 36.9679 4.07418 37.7551 4.47654C38.5423 4.8789 39.2055 5.48735 39.674 6.237C40.1425 6.98666 40.3988 7.84942 40.4156 8.73329C40.4058 9.64117 40.139 10.5277 39.6463 11.2903C39.1535 12.0528 38.4548 12.6602 37.6311 13.0422C37.6937 13.5219 37.7249 14.0051 37.7244 14.4888C37.7203 15.1141 37.6683 15.7382 37.5689 16.3555C39.2635 15.9198 40.7665 14.9362 41.8441 13.5576C42.9216 12.1791 43.5132 10.4829 43.5267 8.73329C43.5061 6.62909 42.6537 4.61854 41.1556 3.14081C39.6574 1.66309 37.6354 0.8383 35.5311 0.84662Z" fill="#A6A6A6"/>
</svg>
