<svg width="52" height="52" viewBox="0 0 52 52" fill="none" xmlns="http://www.w3.org/2000/svg">
<path d="M26 50.1666C29.1742 50.1707 32.3179 49.5475 35.2505 48.3327C38.1831 47.118 40.8467 45.3357 43.0882 43.0882C45.3357 40.8466 47.118 38.183 48.3328 35.2505C49.5476 32.3179 50.1708 29.1742 50.1667 25.9999C50.1707 22.8257 49.5475 19.682 48.3327 16.7495C47.118 13.8169 45.3357 11.1533 43.0882 8.91169C40.8467 6.66422 38.1831 4.8819 35.2505 3.66714C32.3179 2.45239 29.1742 1.82916 26 1.83327C22.8258 1.82923 19.6821 2.45249 16.7495 3.66723C13.8169 4.88198 11.1533 6.66428 8.91175 8.91169C6.66434 11.1533 4.88205 13.8169 3.6673 16.7495C2.45255 19.682 1.82929 22.8257 1.83333 25.9999C1.82922 29.1742 2.45245 32.3179 3.6672 35.2505C4.88196 38.183 6.66428 40.8466 8.91175 43.0882C11.1533 45.3356 13.8169 47.1179 16.7495 48.3326C19.6821 49.5474 22.8258 50.1707 26 50.1666Z" stroke="#B50303" stroke-width="2" stroke-linejoin="round"/>
<path fill-rule="evenodd" clip-rule="evenodd" d="M26 40.5C26.5494 40.5 27.0763 40.2818 27.4647 39.8933C27.8532 39.5049 28.0714 38.978 28.0714 38.4286C28.0714 37.8792 27.8532 37.3524 27.4647 36.9639C27.0763 36.5754 26.5494 36.3572 26 36.3572C25.4506 36.3572 24.9238 36.5754 24.5353 36.9639C24.1468 37.3524 23.9286 37.8792 23.9286 38.4286C23.9286 38.978 24.1468 39.5049 24.5353 39.8933C24.9238 40.2818 25.4506 40.5 26 40.5Z" fill="#B50303"/>
<path d="M26 11.5V30.8333" stroke="#B50303" stroke-width="2" stroke-linecap="round" stroke-linejoin="round"/>
</svg>
