<svg width="78" height="56" viewBox="0 0 78 56" fill="none" xmlns="http://www.w3.org/2000/svg">
<path d="M35.5 56H19.75C14.4417 56 9.90683 54.1625 6.1455 50.4875C2.38183 46.8125 0.5 42.3208 0.5 37.0125C0.5 32.4625 1.87083 28.4083 4.6125 24.85C7.35417 21.2917 10.9417 19.0167 15.375 18.025C16.8333 12.6583 19.75 8.3125 24.125 4.9875C28.5 1.6625 33.4583 0 39 0C45.825 0 51.614 2.3765 56.367 7.1295C61.1223 11.8848 63.5 17.675 63.5 24.5C67.525 24.9667 70.8652 26.7015 73.5205 29.7045C76.1735 32.7098 77.5 36.225 77.5 40.25C77.5 44.625 75.9693 48.3443 72.908 51.408C69.8443 54.4693 66.125 56 61.75 56H42.5V30.975L48.1 36.4L53 31.5L39 17.5L25 31.5L29.9 36.4L35.5 30.975V56Z" fill="#A2A2A2"/>
</svg>
