<svg width="33" height="41" viewBox="0 0 33 41" fill="none" xmlns="http://www.w3.org/2000/svg">
<path d="M16.5 25.25V1.5M16.5 1.5L10.5627 7.4375M16.5 1.5L22.4377 7.4375M24.8127 25.25H26C28.2391 25.25 29.3587 25.25 30.0544 25.9456C30.75 26.6413 30.75 27.7608 30.75 30V34.75C30.75 36.9891 30.75 38.1087 30.0544 38.8044C29.3587 39.5 28.2391 39.5 26 39.5H7.00024C4.76106 39.5 3.64146 39.5 2.94585 38.8044C2.25024 38.1087 2.25024 36.9891 2.25024 34.75V30C2.25024 27.7608 2.25024 26.6413 2.94585 25.9456C3.64146 25.25 4.76106 25.25 7.00024 25.25H8.18774" stroke="#A6A6A6" stroke-width="3" stroke-linecap="round" stroke-linejoin="round"/>
</svg>
