<svg width="23" height="26" viewBox="0 0 23 26" fill="none" xmlns="http://www.w3.org/2000/svg">
<path d="M0.25 0.625V23.375H14.25V21.625H2V2.375H10.75V7.625H16V9.375H17.75V6.39966L17.4868 6.13818L12.2368 0.888184L11.9753 0.625H0.25ZM12.5 3.60034L14.7747 5.875H12.5V3.60034ZM3.75 9.375V11.125H14.25V9.375H3.75ZM18.625 11.125V12.875C17.1375 13.1375 16 14.3625 16 15.9375C16 17.6875 17.3125 19 19.0625 19H19.9375C20.6375 19 21.25 19.6125 21.25 20.3125C21.25 21.0125 20.6375 21.625 19.9375 21.625H16.875V23.375H18.625V25.125H20.375V23.375C21.8625 23.1125 23 21.8875 23 20.3125C23 18.5625 21.6875 17.25 19.9375 17.25H19.0625C18.3625 17.25 17.75 16.6375 17.75 15.9375C17.75 15.2375 18.3625 14.625 19.0625 14.625H22.125V12.875H20.375V11.125H18.625ZM3.75 13.75V15.5H9.875V13.75H3.75ZM11.625 13.75V15.5H14.25V13.75H11.625ZM3.75 17.25V19H9.875V17.25H3.75ZM11.625 17.25V19H14.25V17.25H11.625Z" fill="#393939"/>
</svg>
