<svg width="22" height="26" viewBox="0 0 22 26" fill="none" xmlns="http://www.w3.org/2000/svg">
<path d="M20.3333 0.166687H1.66667C1.35725 0.166687 1.0605 0.289603 0.841709 0.508396C0.622916 0.727188 0.5 1.02393 0.5 1.33335V24.6667C0.5 24.9761 0.622916 25.2729 0.841709 25.4916C1.0605 25.7104 1.35725 25.8334 1.66667 25.8334H20.3333C20.6428 25.8334 20.9395 25.7104 21.1583 25.4916C21.3771 25.2729 21.5 24.9761 21.5 24.6667V1.33335C21.5 1.02393 21.3771 0.727188 21.1583 0.508396C20.9395 0.289603 20.6428 0.166687 20.3333 0.166687ZM19.1667 23.5H2.83333V2.50002H19.1667V23.5ZM7.5 8.91669C7.5 8.22445 7.70527 7.54776 8.08986 6.97219C8.47444 6.39662 9.02107 5.94802 9.66061 5.68311C10.3001 5.4182 11.0039 5.34889 11.6828 5.48394C12.3617 5.61899 12.9854 5.95233 13.4749 6.44181C13.9644 6.9313 14.2977 7.55494 14.4327 8.23387C14.5678 8.9128 14.4985 9.61654 14.2336 10.2561C13.9687 10.8956 13.5201 11.4422 12.9445 11.8268C12.3689 12.2114 11.6922 12.4167 11 12.4167C10.0717 12.4167 9.1815 12.0479 8.52513 11.3916C7.86875 10.7352 7.5 9.84494 7.5 8.91669ZM5.16667 19.4167C5.16667 17.8696 5.78125 16.3859 6.87521 15.2919C7.96917 14.1979 9.4529 13.5834 11 13.5834C12.5471 13.5834 14.0308 14.1979 15.1248 15.2919C16.2188 16.3859 16.8333 17.8696 16.8333 19.4167C16.8333 19.7261 16.7104 20.0229 16.4916 20.2416C16.2728 20.4604 15.9761 20.5834 15.6667 20.5834C15.3572 20.5834 15.0605 20.4604 14.8417 20.2416C14.6229 20.0229 14.5 19.7261 14.5 19.4167C14.5 18.4884 14.1313 17.5982 13.4749 16.9418C12.8185 16.2854 11.9283 15.9167 11 15.9167C10.0717 15.9167 9.1815 16.2854 8.52513 16.9418C7.86875 17.5982 7.5 18.4884 7.5 19.4167C7.5 19.7261 7.37708 20.0229 7.15829 20.2416C6.9395 20.4604 6.64275 20.5834 6.33333 20.5834C6.02391 20.5834 5.72717 20.4604 5.50838 20.2416C5.28958 20.0229 5.16667 19.7261 5.16667 19.4167Z" fill="#393939"/>
</svg>
