<svg width="26" height="26" viewBox="0 0 26 26" fill="none" xmlns="http://www.w3.org/2000/svg">
<path d="M1 2.5C1 2.10218 1.15804 1.72064 1.43934 1.43934C1.72064 1.15804 2.10218 1 2.5 1H8.5C8.89782 1 9.27935 1.15804 9.56066 1.43934C9.84196 1.72064 10 2.10218 10 2.5V10C10 10.3978 9.84196 10.7794 9.56066 11.0607C9.27935 11.342 8.89782 11.5 8.5 11.5H2.5C2.10218 11.5 1.72064 11.342 1.43934 11.0607C1.15804 10.7794 1 10.3978 1 10V2.5ZM16 2.5C16 2.10218 16.158 1.72064 16.4393 1.43934C16.7206 1.15804 17.1022 1 17.5 1H23.5C23.8978 1 24.2794 1.15804 24.5607 1.43934C24.842 1.72064 25 2.10218 25 2.5V5.5C25 5.89782 24.842 6.27935 24.5607 6.56066C24.2794 6.84196 23.8978 7 23.5 7H17.5C17.1022 7 16.7206 6.84196 16.4393 6.56066C16.158 6.27935 16 5.89782 16 5.5V2.5ZM1 19C1 18.6022 1.15804 18.2206 1.43934 17.9393C1.72064 17.658 2.10218 17.5 2.5 17.5H8.5C8.89782 17.5 9.27935 17.658 9.56066 17.9393C9.84196 18.2206 10 18.6022 10 19V23.5C10 23.8978 9.84196 24.2794 9.56066 24.5607C9.27935 24.842 8.89782 25 8.5 25H2.5C2.10218 25 1.72064 24.842 1.43934 24.5607C1.15804 24.2794 1 23.8978 1 23.5V19ZM16 14.5C16 14.1022 16.158 13.7206 16.4393 13.4393C16.7206 13.158 17.1022 13 17.5 13H23.5C23.8978 13 24.2794 13.158 24.5607 13.4393C24.842 13.7206 25 14.1022 25 14.5V23.5C25 23.8978 24.842 24.2794 24.5607 24.5607C24.2794 24.842 23.8978 25 23.5 25H17.5C17.1022 25 16.7206 24.842 16.4393 24.5607C16.158 24.2794 16 23.8978 16 23.5V14.5Z" stroke="#E78200" stroke-width="2"/>
</svg>
