<svg width="24" height="28" viewBox="0 0 24 28" fill="none" xmlns="http://www.w3.org/2000/svg">
<path d="M12 27.75C11.3369 27.75 10.7011 27.4866 10.2322 27.0178C9.76337 26.5489 9.49998 25.913 9.49998 25.25H14.5C14.5 25.913 14.2366 26.5489 13.7677 27.0178C13.2989 27.4866 12.663 27.75 12 27.75ZM22 6.5C22 6.00555 21.8534 5.5222 21.5786 5.11107C21.3039 4.69995 20.9135 4.37952 20.4567 4.1903C19.9999 4.00108 19.4972 3.95157 19.0123 4.04804C18.5273 4.1445 18.0818 4.3826 17.7322 4.73223C17.3826 5.08186 17.1445 5.52732 17.048 6.01227C16.9515 6.49723 17.0011 6.99989 17.1903 7.45671C17.3795 7.91352 17.6999 8.30397 18.111 8.57867C18.5222 8.85338 19.0055 9 19.5 9C20.163 9 20.7989 8.73661 21.2677 8.26777C21.7366 7.79893 22 7.16304 22 6.5ZM22.8837 20.6162L20.75 18.4825V11.5H18.25V19C18.25 19.3315 18.3818 19.6494 18.6162 19.8837L18.9825 20.25H5.01748L5.38373 19.8837C5.61816 19.6494 5.74991 19.3315 5.74998 19V11.5C5.74629 10.5817 5.94582 9.67394 6.33427 8.84182C6.72272 8.00971 7.29046 7.27385 7.99679 6.68699C8.70312 6.10013 9.53055 5.67682 10.4197 5.4474C11.3089 5.21798 12.2379 5.18813 13.14 5.36L15.125 3.375C15.0597 3.32594 14.9892 3.28403 14.915 3.25C14.3742 3.06425 13.8165 2.93195 13.25 2.855V1.5C13.25 1.16848 13.1183 0.850537 12.8839 0.616116C12.6494 0.381696 12.3315 0.25 12 0.25C11.6685 0.25 11.3505 0.381696 11.1161 0.616116C10.8817 0.850537 10.75 1.16848 10.75 1.5V2.85C8.66923 3.15033 6.76617 4.18977 5.38895 5.77816C4.01174 7.36655 3.25244 9.39769 3.24998 11.5V18.4825L1.11623 20.6162C0.941466 20.7911 0.822458 21.0138 0.774248 21.2562C0.726039 21.4986 0.750793 21.7499 0.84538 21.9783C0.939968 22.2067 1.10014 22.4019 1.30565 22.5392C1.51117 22.6766 1.75279 22.7499 1.99998 22.75H22C22.2472 22.7499 22.4888 22.6766 22.6943 22.5392C22.8998 22.4019 23.06 22.2067 23.1546 21.9783C23.2492 21.7499 23.2739 21.4986 23.2257 21.2562C23.1775 21.0138 23.0585 20.7911 22.8837 20.6162Z" fill="#393939"/>
</svg>
