<svg width="25" height="25" viewBox="0 0 25 25" fill="none" xmlns="http://www.w3.org/2000/svg">
<path d="M10.7789 10.9811C9.70211 10.9811 8.64948 10.6618 7.75415 10.0636C6.85881 9.46532 6.16099 8.61501 5.74891 7.62017C5.33683 6.62533 5.22901 5.53063 5.43909 4.47451C5.64916 3.41839 6.1677 2.44829 6.92912 1.68687C7.69053 0.925448 8.66064 0.406915 9.71676 0.19684C10.7729 -0.013235 11.8676 0.0945831 12.8624 0.50666C13.8573 0.918737 14.7076 1.61657 15.3058 2.5119C15.9041 3.40723 16.2234 4.45986 16.2234 5.53667C16.2234 6.98063 15.6498 8.36544 14.6287 9.38647C13.6077 10.4075 12.2229 10.9811 10.7789 10.9811ZM10.7789 1.71C10.0098 1.71 9.25789 1.93808 8.61837 2.3654C7.97884 2.79272 7.4804 3.40008 7.18605 4.11068C6.89171 4.82128 6.8147 5.60321 6.96475 6.35758C7.11481 7.11195 7.48519 7.80488 8.02906 8.34875C8.57293 8.89262 9.26586 9.263 10.0202 9.41306C10.7746 9.56311 11.5565 9.4861 12.2671 9.19176C12.9777 8.89742 13.5851 8.39897 14.0124 7.75944C14.4397 7.11992 14.6678 6.36804 14.6678 5.59889C14.6678 5.0882 14.5672 4.5825 14.3718 4.11068C14.1763 3.63886 13.8899 3.21015 13.5288 2.84903C13.1677 2.48792 12.739 2.20146 12.2671 2.00603C11.7953 1.81059 11.2896 1.71 10.7789 1.71Z" fill="#393939"/>
<path d="M15.1111 11.9222C10.9021 10.9751 6.49877 11.4313 2.5733 13.2211C2.03344 13.479 1.57795 13.8849 1.25987 14.3916C0.941788 14.8984 0.774206 15.485 0.776637 16.0833V20.7111C0.776637 20.9174 0.858582 21.1152 1.00444 21.2611C1.1503 21.4069 1.34814 21.4889 1.55442 21.4889C1.76069 21.4889 1.95853 21.4069 2.10439 21.2611C2.25025 21.1152 2.33219 20.9174 2.33219 20.7111V16.0833C2.32542 15.7805 2.40719 15.4823 2.56745 15.2254C2.72772 14.9684 2.95952 14.7638 3.23442 14.6366C5.59907 13.5448 8.17433 12.9846 10.7789 12.9955C12.2382 12.9937 13.6926 13.166 15.1111 13.5089V11.9222Z" fill="#393939"/>
<path d="M19.9955 19.3189H15.22V20.4078H19.9955V19.3189Z" fill="#393939"/>
<path d="M23.7989 14.6989H19.7778V16.2544H23.0211V22.7644H12V16.2544H16.9V16.5811C16.9 16.7874 16.982 16.9852 17.1278 17.1311C17.2737 17.2769 17.4715 17.3589 17.6778 17.3589C17.8841 17.3589 18.0819 17.2769 18.2278 17.1311C18.3736 16.9852 18.4556 16.7874 18.4556 16.5811V13.5555C18.4556 13.3493 18.3736 13.1514 18.2278 13.0056C18.0819 12.8597 17.8841 12.7778 17.6778 12.7778C17.4715 12.7778 17.2737 12.8597 17.1278 13.0056C16.982 13.1514 16.9 13.3493 16.9 13.5555V14.6989H11.2222C11.016 14.6989 10.8181 14.7808 10.6723 14.9267C10.5264 15.0725 10.4445 15.2704 10.4445 15.4767V23.5422C10.4445 23.7485 10.5264 23.9463 10.6723 24.0922C10.8181 24.238 11.016 24.32 11.2222 24.32H23.7989C24.0052 24.32 24.203 24.238 24.3489 24.0922C24.4947 23.9463 24.5767 23.7485 24.5767 23.5422V15.4767C24.5767 15.2704 24.4947 15.0725 24.3489 14.9267C24.203 14.7808 24.0052 14.6989 23.7989 14.6989Z" fill="#393939"/>
</svg>
