<svg width="24" height="30" viewBox="0 0 24 30" fill="none" xmlns="http://www.w3.org/2000/svg">
<path d="M0 25.5V22.5H3V12C3 9.925 3.625 8.081 4.875 6.468C6.125 4.856 7.75 3.8 9.75 3.3V2.25C9.75 1.625 9.969 1.094 10.407 0.657C10.844 0.219 11.375 0 12 0C12.625 0 13.156 0.219 13.593 0.657C14.031 1.094 14.25 1.625 14.25 2.25V3.3C16.25 3.8 17.875 4.856 19.125 6.468C20.375 8.081 21 9.925 21 12V22.5H24V25.5H0ZM12 30C11.175 30 10.469 29.7065 9.882 29.1195C9.294 28.5315 9 27.825 9 27H15C15 27.825 14.7065 28.5315 14.1195 29.1195C13.5315 29.7065 12.825 30 12 30Z" fill="#464455"/>
</svg>
