<svg width="13" height="13" viewBox="0 0 13 13" fill="none" xmlns="http://www.w3.org/2000/svg">
<path d="M12.54 9.77995L11.3 8.77995C10.88 8.43995 10.28 8.41975 9.84 8.73995L8.66 9.59995C8.5 9.71995 8.2802 9.69995 8.14 9.55995L6.2 7.79995L4.42 5.83996C4.28 5.69996 4.26 5.47995 4.38 5.31995L5.24 4.13996C5.56 3.69996 5.54 3.09995 5.2 2.67996L4.2 1.43996C3.76 0.879955 2.92 0.839955 2.42 1.33996L1.34 2.41996C1.1 2.65996 0.98 2.99996 0.98 3.31996C1.12 5.85995 2.28 8.27995 3.98 9.97995C5.68 11.68 8.08 12.84 10.64 12.98C10.98 13 11.3 12.8598 11.54 12.6198L12.62 11.54C13.16 11.06 13.1 10.22 12.54 9.77995Z" fill="white"/>
</svg>
