<svg width="28" height="26" viewBox="0 0 28 26" fill="none" xmlns="http://www.w3.org/2000/svg">
<path d="M27.1551 3.42212C27.1546 4.2327 26.8325 5.00996 26.2596 5.58331C25.6866 6.15665 24.9095 6.47922 24.0989 6.48023H23.1402V22.3884C23.1392 23.1987 22.8169 23.9755 22.2439 24.5484C21.671 25.1213 20.8942 25.4436 20.084 25.4447H3.90103C3.49956 25.4447 3.10202 25.3656 2.73111 25.2119C2.36019 25.0583 2.02318 24.8331 1.73929 24.5492C1.45541 24.2653 1.23022 23.9283 1.07658 23.5574C0.922948 23.1865 0.843872 22.789 0.843872 22.3875C0.843872 21.986 0.922948 21.5885 1.07658 21.2176C1.23022 20.8467 1.45541 20.5096 1.73929 20.2258C2.02318 19.9419 2.36019 19.7167 2.73111 19.563C3.10202 19.4094 3.49956 19.3303 3.90103 19.3303H4.85787V3.42212C4.85787 2.61089 5.18 1.83285 5.75346 1.25904C6.32691 0.685238 7.10474 0.362624 7.91598 0.362122H24.097C24.9079 0.362624 25.6855 0.684977 26.2589 1.25837C26.8323 1.83177 27.1546 2.60932 27.1551 3.42023V3.42212ZM3.90103 23.3453H17.1775C16.9725 22.7239 16.9725 22.053 17.1775 21.4316H3.90482C3.65105 21.4316 3.40767 21.5324 3.22823 21.7118C3.04879 21.8913 2.94798 22.1347 2.94798 22.3884C2.94798 22.6422 3.04879 22.8856 3.22823 23.065C3.40767 23.2445 3.65105 23.3453 3.90482 23.3453H3.90103ZM21.0389 3.42212C21.0385 3.09716 21.0896 2.77419 21.1905 2.46528H7.91787C7.70486 2.4649 7.49793 2.53632 7.3305 2.66802L7.32671 2.66991C7.21226 2.75894 7.11977 2.87306 7.05637 3.00348C6.99297 3.13389 6.96035 3.27712 6.96103 3.42212V19.3303H18.968C19.2297 19.3273 19.4846 19.4132 19.6911 19.574C19.8976 19.7347 20.0435 19.9608 20.1048 20.2152C20.1768 20.4587 20.1695 20.7187 20.084 20.9578C19.9986 21.1969 19.8393 21.4026 19.6292 21.5453C19.4808 21.6259 19.3563 21.7444 19.2685 21.8887C19.1807 22.033 19.1326 22.1979 19.1292 22.3668C19.1258 22.5357 19.1672 22.7025 19.2491 22.8502C19.331 22.9979 19.4506 23.1213 19.5957 23.2079C19.7408 23.2944 19.9062 23.341 20.0751 23.3429C20.244 23.3448 20.4104 23.302 20.5574 23.2187C20.7044 23.1355 20.8267 23.0148 20.9119 22.869C20.9972 22.7232 21.0423 22.5574 21.0427 22.3884L21.0389 3.42212ZM19.4095 6.14675H8.49577V8.24423H19.4095V6.14675ZM19.4095 10.4289H8.49577V12.5263H19.4095V10.4289ZM19.4095 14.711H8.49577V16.8103H19.4095V14.711ZM25.0539 3.42212C25.0534 3.16851 24.9524 2.92542 24.7731 2.74609C24.5937 2.56675 24.3506 2.46578 24.097 2.46528C23.8839 2.46431 23.6768 2.53579 23.5097 2.66802H23.5059C23.3909 2.75715 23.298 2.87151 23.2343 3.00226C23.1705 3.13301 23.1377 3.27666 23.1383 3.42212V4.37896H24.097C24.3506 4.37846 24.5937 4.27749 24.7731 4.09816C24.9524 3.91882 25.0534 3.67574 25.0539 3.42212Z" fill="#E78200"/>
</svg>
