<svg width="17" height="20" viewBox="0 0 17 20" fill="none" xmlns="http://www.w3.org/2000/svg">
<path d="M15.29 11.8C14.75 11.8 14.345 12.205 14.345 12.745V17.155C14.345 17.695 13.94 18.1 13.4 18.1H2.96C2.42 18.1 2.015 17.695 2.015 17.155V12.745C2.015 12.25 1.61 11.8 1.07 11.8C0.53 11.8 0.125 12.25 0.125 12.745V17.155C0.125 18.73 1.385 19.99 2.96 19.99H13.4C14.975 19.99 16.235 18.73 16.235 17.155V12.745C16.235 12.25 15.83 11.8 15.29 11.8ZM8.855 0.32501C8.81 0.28001 8.63 0.0100098 8.18 0.0100098C7.73 0.0100098 7.55 0.28001 7.505 0.32501L3.545 4.28501C3.185 4.64501 3.185 5.23001 3.545 5.63501C3.905 5.99501 4.49 5.99501 4.895 5.63501L7.235 3.25001V12.16C7.235 12.7 7.64 13.105 8.18 13.105C8.72 13.105 9.125 12.7 9.125 12.16V3.25001L11.465 5.59001C11.825 5.95001 12.41 5.95001 12.815 5.59001C13.175 5.23001 13.175 4.64501 12.815 4.24001L8.855 0.32501Z" fill="#393939"/>
</svg>
