<svg width="27" height="18" viewBox="0 0 27 18" fill="none" xmlns="http://www.w3.org/2000/svg">
<path d="M1.5 18C1.075 18 0.719 17.856 0.432 17.568C0.144 17.281 0 16.925 0 16.5C0 16.075 0.144 15.719 0.432 15.432C0.719 15.144 1.075 15 1.5 15L18 15C18.425 15 18.7815 15.144 19.0695 15.432C19.3565 15.719 19.5 16.075 19.5 16.5C19.5 16.925 19.3565 17.281 19.0695 17.568C18.7815 17.856 18.425 18 18 18L1.5 18ZM1.5 10.5C1.075 10.5 0.719 10.356 0.432 10.068C0.144 9.781 0 9.425 0 9C0 8.575 0.144 8.2185 0.432 7.9305C0.719 7.6435 1.075 7.5 1.5 7.5L13.5 7.5C13.925 7.5 14.2815 7.6435 14.5695 7.9305C14.8565 8.2185 15 8.575 15 9C15 9.425 14.8565 9.781 14.5695 10.068C14.2815 10.356 13.925 10.5 13.5 10.5L1.5 10.5ZM1.5 3C1.075 3 0.719 2.8565 0.432 2.5695C0.144 2.2815 0 1.925 0 1.5C0 1.075 0.144 0.7185 0.432 0.4305C0.719 0.1435 1.075 0 1.5 0L18 0C18.425 0 18.7815 0.1435 19.0695 0.4305C19.3565 0.7185 19.5 1.075 19.5 1.5C19.5 1.925 19.3565 2.2815 19.0695 2.5695C18.7815 2.8565 18.425 3 18 3L1.5 3ZM21.6 9L25.95 13.35C26.225 13.625 26.3625 13.975 26.3625 14.4C26.3625 14.825 26.225 15.175 25.95 15.45C25.675 15.725 25.325 15.8625 24.9 15.8625C24.475 15.8625 24.125 15.725 23.85 15.45L18.45 10.05C18.15 9.75 18 9.4 18 9C18 8.6 18.15 8.25 18.45 7.95L23.85 2.55C24.125 2.275 24.475 2.1375 24.9 2.1375C25.325 2.1375 25.675 2.275 25.95 2.55C26.225 2.825 26.3625 3.175 26.3625 3.6C26.3625 4.025 26.225 4.375 25.95 4.65L21.6 9Z" fill="#393939"/>
</svg>
