<svg width="16" height="16" viewBox="0 0 16 16" fill="none" xmlns="http://www.w3.org/2000/svg">
<path d="M8 6C7.47065 6.00349 6.96397 6.21533 6.58965 6.58965C6.21533 6.96397 6.00349 7.47065 6 8C6 9.09467 6.90533 10 8 10C9.094 10 10 9.09467 10 8C10 6.906 9.094 6 8 6Z" fill="black"/>
<path d="M8.00003 3.33325C2.91136 3.33325 1.38203 7.74459 1.36803 7.78925L1.29736 7.99992L1.36736 8.21059C1.38203 8.25525 2.91136 12.6666 8.00003 12.6666C13.0887 12.6666 14.618 8.25525 14.632 8.21059L14.7027 7.99992L14.6327 7.78925C14.618 7.74459 13.0887 3.33325 8.00003 3.33325ZM8.00003 11.3333C4.4327 11.3333 3.0507 8.76925 2.71603 7.99992C3.05203 7.22792 4.4347 4.66659 8.00003 4.66659C11.5674 4.66659 12.9494 7.23059 13.284 7.99992C12.948 8.77192 11.5654 11.3333 8.00003 11.3333Z" fill="black"/>
</svg>
