<svg width="62" height="62" viewBox="0 0 62 62" fill="none" xmlns="http://www.w3.org/2000/svg">
<g filter="url(#filter0_d_406_665)">
<path d="M31 42C31.7367 42 32.3546 41.7504 32.8538 41.2512C33.3513 40.7537 33.6 40.1367 33.6 39.4V31.6H41.465C42.2017 31.6 42.8083 31.3504 43.285 30.8512C43.7617 30.3537 44 29.7367 44 29C44 28.2633 43.7504 27.6454 43.2512 27.1462C42.7537 26.6487 42.1367 26.4 41.4 26.4H33.6V18.535C33.6 17.7983 33.3513 17.1917 32.8538 16.715C32.3546 16.2383 31.7367 16 31 16C30.2633 16 29.6463 16.2487 29.1488 16.7462C28.6496 17.2454 28.4 17.8633 28.4 18.6V26.4H20.535C19.7983 26.4 19.1917 26.6487 18.715 27.1462C18.2383 27.6454 18 28.2633 18 29C18 29.7367 18.2487 30.3537 18.7462 30.8512C19.2454 31.3504 19.8633 31.6 20.6 31.6H28.4V39.465C28.4 40.2017 28.6496 40.8083 29.1488 41.285C29.6463 41.7617 30.2633 42 31 42ZM31 55C27.4033 55 24.0233 54.3171 20.86 52.9512C17.6967 51.5871 14.945 49.735 12.605 47.395C10.265 45.055 8.41293 42.3033 7.0488 39.14C5.68293 35.9767 5 32.5967 5 29C5 25.4033 5.68293 22.0233 7.0488 18.86C8.41293 15.6967 10.265 12.945 12.605 10.605C14.945 8.265 17.6967 6.41207 20.86 5.0462C24.0233 3.68207 27.4033 3 31 3C34.5967 3 37.9767 3.68207 41.14 5.0462C44.3033 6.41207 47.055 8.265 49.395 10.605C51.735 12.945 53.5871 15.6967 54.9512 18.86C56.3171 22.0233 57 25.4033 57 29C57 32.5967 56.3171 35.9767 54.9512 39.14C53.5871 42.3033 51.735 45.055 49.395 47.395C47.055 49.735 44.3033 51.5871 41.14 52.9512C37.9767 54.3171 34.5967 55 31 55Z" fill="#E78200"/>
</g>
<defs>
<filter id="filter0_d_406_665" x="0" y="0" width="62" height="62" filterUnits="userSpaceOnUse" color-interpolation-filters="sRGB">
<feFlood flood-opacity="0" result="BackgroundImageFix"/>
<feColorMatrix in="SourceAlpha" type="matrix" values="0 0 0 0 0 0 0 0 0 0 0 0 0 0 0 0 0 0 127 0" result="hardAlpha"/>
<feOffset dy="2"/>
<feGaussianBlur stdDeviation="2.5"/>
<feComposite in2="hardAlpha" operator="out"/>
<feColorMatrix type="matrix" values="0 0 0 0 0 0 0 0 0 0 0 0 0 0 0 0 0 0 0.1 0"/>
<feBlend mode="normal" in2="BackgroundImageFix" result="effect1_dropShadow_406_665"/>
<feBlend mode="normal" in="SourceGraphic" in2="effect1_dropShadow_406_665" result="shape"/>
</filter>
</defs>
</svg>
