<svg width="360" height="269" viewBox="0 0 360 269" fill="none" xmlns="http://www.w3.org/2000/svg">
<g filter="url(#filter0_d_132_4)">
<path d="M360 0L360 235C360 246.046 351.046 255 340 255L20 255C8.9543 255 -1.0755e-05 246.046 -1.02722e-05 235L0 -1.57361e-05L360 0Z" fill="url(#paint0_linear_132_4)"/>
</g>
<path d="M22.6359 102.945L22.0936 102.994C20.9104 92.6861 24.0655 82.6247 32.052 71.3795L32.4957 71.6754C24.6078 82.822 21.4527 92.7354 22.6359 102.945Z" fill="#FF9312"/>
<path d="M19.2835 109.85L18.7905 109.998C12.7267 90.7626 23.1288 75.1279 34.0732 62.4031L34.4676 62.7483C23.6218 75.4238 13.3183 90.8612 19.2835 109.85Z" fill="#FF9312"/>
<path d="M274.307 27.8291C262.18 21.6147 251.926 19.9378 242.016 22.5518L241.869 22.0586C251.926 19.3953 262.328 21.0722 274.554 27.3359L274.307 27.8291Z" fill="#E57B07"/>
<path d="M283.428 28.5197C269.377 19.5926 252.616 11.6519 234.671 20.2831L234.424 19.7899C252.616 11.0108 269.525 19.0501 283.674 28.0265L283.428 28.5197Z" fill="#E57B07"/>
<path d="M129.368 81.3424H128.579C128.579 80.9478 128.629 80.5533 128.629 80.1587L129.417 80.208C129.368 80.6026 129.368 80.9478 129.368 81.3424Z" fill="#FF9312"/>
<path d="M181.773 74.9306C181.576 74.1908 181.329 73.451 181.034 72.7112L181.773 72.4646C182.069 73.2044 182.315 73.9935 182.513 74.7333L181.773 74.9306ZM129.664 77.8899L128.924 77.7912C129.072 77.0021 129.22 76.2129 129.417 75.4238L130.157 75.6211C129.96 76.3609 129.812 77.1007 129.664 77.8899ZM180.146 70.541C179.801 69.8506 179.456 69.1601 179.062 68.4696L179.702 68.075C180.097 68.7655 180.491 69.456 180.836 70.1958L180.146 70.541ZM130.798 73.3523L130.058 73.1057C130.305 72.3659 130.601 71.5768 130.946 70.8863L131.636 71.1822C131.34 71.922 131.044 72.6125 130.798 73.3523ZM177.731 66.5461C177.287 65.9049 176.794 65.313 176.301 64.7212L176.892 64.228C177.435 64.8198 177.928 65.461 178.371 66.1022L177.731 66.5461ZM132.721 69.1107L132.03 68.7162C132.425 68.0257 132.819 67.3352 133.312 66.694L133.953 67.1379C133.509 67.7791 133.115 68.4202 132.721 69.1107ZM174.723 62.995C174.181 62.4524 173.589 61.9099 172.998 61.4167L173.491 60.8248C174.132 61.3181 174.723 61.8606 175.266 62.4031L174.723 62.995ZM135.333 65.2637L134.742 64.7705C135.235 64.1293 135.777 63.5375 136.319 62.995L136.862 63.5375C136.369 64.0307 135.826 64.6225 135.333 65.2637ZM171.075 60.0357C170.434 59.5918 169.744 59.1973 169.103 58.8027L169.498 58.1122C170.188 58.5068 170.878 58.9506 171.519 59.3945L171.075 60.0357ZM138.587 61.9099L138.094 61.3181C138.686 60.7755 139.327 60.2823 139.967 59.8384L140.411 60.4796C139.77 60.8742 139.179 61.3674 138.587 61.9099ZM167.033 57.7669C166.342 57.471 165.603 57.1751 164.863 56.8792L165.11 56.1394C165.849 56.386 166.589 56.6819 167.328 57.0271L167.033 57.7669ZM142.383 59.1479L141.989 58.5068C142.679 58.1122 143.369 57.7176 144.109 57.3724L144.454 58.0629C143.714 58.4081 143.024 58.7534 142.383 59.1479ZM162.645 56.1887C161.906 55.9914 161.117 55.8434 160.377 55.6955L160.525 54.9557C161.314 55.1036 162.103 55.2516 162.892 55.4489L162.645 56.1887ZM146.574 57.1258L146.278 56.386C147.017 56.09 147.806 55.8434 148.546 55.6462L148.743 56.386C148.053 56.5832 147.313 56.8299 146.574 57.1258ZM158.011 55.4489C157.222 55.3995 156.433 55.3502 155.694 55.3995V54.6104C156.483 54.6104 157.321 54.6104 158.11 54.6597L158.011 55.4489ZM151.06 55.8434L150.912 55.1036C151.701 54.9557 152.489 54.857 153.278 54.7584L153.377 55.5475C152.588 55.5968 151.799 55.6955 151.06 55.8434Z" fill="#FF9312"/>
<path d="M183.252 78.2352L182.513 78.3338C182.463 77.9392 182.414 77.594 182.315 77.1994L183.055 77.0515C183.104 77.446 183.203 77.8406 183.252 78.2352Z" fill="#FF9312"/>
<path d="M131.685 81.589L128.925 82.9207L126.016 81.8356L129.171 88.4446L131.685 81.589Z" fill="#FF9312"/>
<path d="M105.507 119.615C105.409 117.84 106.099 115.818 106.592 116.015C107.085 116.212 106.641 117.84 106.937 118.333C107.381 118.974 107.726 119.566 107.43 121.095L105.507 119.615Z" fill="#FCB47E"/>
<path d="M89.7317 241.832L88.3514 230.587H96.5843L96.9787 241.832H89.7317Z" fill="#FCB47E"/>
<path d="M96.8308 236.999C93.725 237.837 89.0909 236.308 89.0909 236.308L88.7458 233.645L96.7322 234.336L96.8308 236.999Z" fill="#FCA377"/>
<path d="M50.2925 241.832L51.0813 230.587H59.3143L57.5395 241.832H50.2925Z" fill="#FCB47E"/>
<path d="M58.9199 233.004L58.3776 236.555C54.5816 236.802 51.8702 235.371 50.7856 234.681L51.0321 231.228L58.9199 233.004Z" fill="#FCA377"/>
<path d="M107.332 234.78C107.332 234.78 101.81 165.385 86.9218 131.65L73.0687 132.34C73.0687 132.34 74.2519 181.168 84.654 234.73C84.6047 234.78 97.6196 237.887 107.332 234.78Z" fill="#D87305"/>
<path d="M68.0402 234.779C68.0402 234.779 54.3843 236.999 46.5951 231.672C46.5951 231.672 50.7362 156.458 63.4061 131.797H78.3437C78.3437 131.797 77.9 172.339 68.0402 234.779Z" fill="#D87305"/>
<path d="M63.8005 96.0892C64.1456 94.7576 64.8357 93.0807 64.8357 93.0807C64.5892 94.3137 64.5892 95.744 64.6385 96.4838C67.8923 97.9634 74.6462 99.8869 85.1469 97.3223C84.999 96.2372 84.9497 95.2015 84.9497 95.2015C85.1469 95.8919 85.3934 96.5824 85.6399 97.1743C86.0343 97.0756 86.3794 96.977 86.7738 96.8784C86.478 95.5467 86.3301 93.2286 86.3301 93.2286C86.6752 94.6096 87.4147 96.0399 87.7105 96.6318C88.3514 96.4345 88.9923 96.2372 89.6824 95.9906C89.6824 95.9906 87.6119 92.7847 86.2315 84.4495C85.0976 77.5939 81.5974 74.3881 76.2731 74.536C65.3287 74.8319 62.3708 95.2015 62.3708 95.2015C62.3708 95.2015 62.8145 95.596 63.8005 96.0892Z" fill="#374263"/>
<path d="M101.662 120.207C101.662 120.207 97.2745 100.429 79.8226 99.3937C52.9547 97.8155 44.6724 115.324 44.6724 115.324L101.662 120.207Z" fill="white"/>
<path d="M73.8575 79.616C76.8155 77.9391 82.0412 77.8405 83.2243 81.8848C84.3089 85.5839 84.161 96.7797 79.1818 96.5824C74.0054 96.3851 72.3786 92.4395 71.8856 90.0227C71.7377 89.0856 70.8503 81.2929 73.8575 79.616Z" fill="#FCB47E"/>
<path d="M72.0334 89.7269C72.0334 89.7269 69.7163 90.4174 69.2727 88.3459C68.8783 86.4717 71.0967 85.7319 71.8362 86.5704L72.0334 89.7269Z" fill="#FCB47E"/>
<path d="M104.078 144.029C107.381 137.519 109.994 122.328 109.994 122.328C110.388 121.736 112.015 119.122 112.114 117.149C112.163 116.261 111.719 115.768 111.128 116.015C110.93 115.324 110.487 115.176 109.944 115.571C109.649 114.93 109.254 114.979 108.86 115.275C108.022 113.845 106.296 118.382 106.346 118.925C106.346 119.319 106.444 120.7 106.543 121.095C106.641 121.637 96.5843 138.752 96.5843 138.752L104.078 144.029Z" fill="#FCB47E"/>
<path d="M49.3066 232.905L48.8629 232.856C48.9122 232.116 53.9407 157.346 66.8078 133.08L67.2021 133.277C54.4337 157.494 49.3559 232.165 49.3066 232.905Z" fill="white"/>
<path d="M60.2017 119.763L55.5182 146.692C67.7937 150.391 81.6467 147.087 92.9855 139.541L88.3021 113.006L79.5762 99.6896C79.5762 99.6896 75.3365 104.572 70.6038 99.591L58.3776 104.72L60.2017 119.763Z" fill="white"/>
<path d="M104.916 125.583L102.451 119.418C102.451 119.418 96.2392 106.792 91.1614 103.537L87.9077 125.632L104.916 125.583Z" fill="white"/>
<path d="M75.8788 174.312L75.4351 174.263C76.1252 166.717 76.7168 159.368 77.1605 152.364L77.6042 152.414C77.2098 159.368 76.6182 166.766 75.8788 174.312Z" fill="#47393D"/>
<path d="M87.9077 234.927C87.8091 234.484 78.5902 190.341 75.9773 168.048L76.421 167.999C79.0339 190.243 88.2528 234.385 88.3021 234.829L87.9077 234.927Z" fill="white"/>
<path d="M88.4668 112.938L88.0298 113.015L92.7166 139.584L93.1536 139.506L88.4668 112.938Z" fill="#A55404"/>
<path d="M70.1107 86.1757C70.1107 86.1757 70.9488 85.6825 71.7869 86.5703C71.7869 86.5703 71.9841 84.7948 72.5757 83.7097L72.9701 85.6825C73.5617 85.7812 75.4843 86.0771 77.5549 86.1264C78.1465 86.1264 79.8226 86.1264 79.8226 86.1264L80.217 82.8712L80.9072 86.0771C81.4002 86.0278 81.7946 85.9785 82.1397 85.9291L82.4355 84.0056L82.9778 85.8305C83.5201 85.7318 83.8652 85.6825 84.0624 85.6332C84.161 84.2522 84.2103 80.5532 81.7453 78.383C78.9353 75.917 72.9701 77.2487 71.5897 80.2079C70.2093 83.1672 70.1107 86.1757 70.1107 86.1757Z" fill="#374263"/>
<path d="M75.6816 101.81C78.1465 101.81 79.6255 99.6403 79.6255 99.6403L78.9846 92.5381L72.2306 88.4938L70.5052 99.5416C70.5052 99.591 72.625 101.81 75.6816 101.81Z" fill="#FCB47E"/>
<path d="M78.9353 96.9277V96.4838C75.8294 96.3358 73.8575 94.0178 72.7729 92.0449L72.3785 92.2422C73.5617 94.3137 75.6815 96.7797 78.9353 96.9277Z" fill="#374263"/>
<path d="M87.8584 247.159L108.761 247.258C109.501 247.258 110.092 246.666 110.043 245.926C110.043 245.926 110.043 245.926 110.043 245.877C110.043 245.729 109.994 245.531 109.994 245.383C109.944 244.841 109.796 244.249 109.501 243.904C108.515 242.572 106.592 241.98 103.19 240.599C101.021 239.712 99.1972 238.577 98.4084 238.035C98.1619 237.837 97.8168 237.887 97.5703 238.133C93.4292 242.178 90.8657 241.29 90.1262 239.613C89.5346 238.331 88.7458 238.577 88.4993 238.972C87.8091 240.155 87.4147 243.559 87.2668 245.236C87.2668 245.433 87.2175 245.581 87.2175 245.729C87.1682 246.025 87.1682 246.222 87.1682 246.222C87.0696 246.764 87.3654 247.159 87.8584 247.159Z" fill="#374263"/>
<path d="M101.958 242.819C103.437 242.128 103.24 240.55 103.24 240.55L102.895 240.599C102.895 240.649 103.092 241.882 101.81 242.474L101.958 242.819Z" fill="white"/>
<path d="M103.782 243.46C105.162 242.671 105.014 241.339 105.014 241.29L104.669 241.339C104.669 241.389 104.768 242.474 103.634 243.115L103.782 243.46Z" fill="white"/>
<path d="M91.9995 242.474C93.3799 242.474 94.6617 241.832 94.711 241.832L94.5631 241.487C94.5138 241.487 91.3586 243.065 89.7318 241.043L89.436 241.29C90.0769 242.227 91.0628 242.474 91.9995 242.474Z" fill="white"/>
<path d="M89.727 245.582L89.7257 245.927L101.903 245.972L101.904 245.627L89.727 245.582Z" fill="white"/>
<path d="M103.469 245.604L103.468 245.95L106.327 245.96L106.329 245.615L103.469 245.604Z" fill="white"/>
<path d="M48.715 247.159L69.6178 247.258C70.3573 247.258 70.9489 246.666 70.8996 245.926C70.8996 245.926 70.8996 245.926 70.8996 245.877C70.8996 245.729 70.8503 245.531 70.8503 245.383C70.801 244.841 70.6531 244.249 70.3573 243.904C69.3713 242.572 67.4486 241.98 64.047 240.599C61.8778 239.712 60.0538 238.577 59.265 238.035C59.0185 237.837 58.6734 237.887 58.4269 238.133C54.2858 242.178 51.7222 241.29 50.9828 239.613C50.3912 238.331 49.6024 238.577 49.3559 238.972C48.6657 240.155 48.2713 243.559 48.1234 245.236C48.1234 245.433 48.0741 245.581 48.0741 245.729C48.0248 246.025 48.0248 246.222 48.0248 246.222C47.9262 246.764 48.2713 247.159 48.715 247.159Z" fill="#374263"/>
<path d="M62.8146 242.819C64.2936 242.128 64.0964 240.55 64.0964 240.55L63.7513 240.599C63.7513 240.649 63.9485 241.882 62.6667 242.474L62.8146 242.819Z" fill="white"/>
<path d="M64.6387 243.46C66.019 242.671 65.8711 241.339 65.8711 241.29L65.526 241.339C65.526 241.389 65.6246 242.474 64.4908 243.115L64.6387 243.46Z" fill="white"/>
<path d="M52.8562 242.474C54.2366 242.474 55.5184 241.832 55.5677 241.832L55.4198 241.487C55.3705 241.487 52.2153 243.065 50.5885 241.043L50.2927 241.29C50.9828 242.227 51.9195 242.474 52.8562 242.474Z" fill="white"/>
<path d="M50.5912 245.54L50.59 245.886L62.7668 245.931L62.7681 245.585L50.5912 245.54Z" fill="white"/>
<path d="M64.3333 245.612L64.332 245.958L67.1914 245.968L67.1926 245.623L64.3333 245.612Z" fill="white"/>
<path d="M61.1383 176.877L130.946 165.829C132.375 165.582 133.361 164.251 133.164 162.82L126.016 117.889C125.769 116.459 124.438 115.472 123.009 115.67L53.2012 126.717C51.7715 126.964 50.7855 128.296 50.9827 129.726L58.0818 174.657C58.3283 176.088 59.6594 177.123 61.1383 176.877Z" fill="#F99F3D"/>
<path d="M74.8928 158.628L62.3215 160.601C61.9271 160.65 61.582 160.404 61.4834 160.009L61.089 157.592C61.0397 157.198 61.2862 156.853 61.6806 156.754L74.2519 154.781C74.6463 154.732 74.9914 154.978 75.09 155.373L75.4844 157.79C75.583 158.184 75.2872 158.579 74.8928 158.628Z" fill="white"/>
<path d="M91.5065 156.014L78.9353 157.987C78.5409 158.036 78.1958 157.79 78.0972 157.395L77.7028 154.978C77.6535 154.584 77.9 154.238 78.2944 154.14L90.8657 152.167C91.2601 152.118 91.6051 152.364 91.7037 152.759L92.0981 155.176C92.1967 155.57 91.9009 155.965 91.5065 156.014Z" fill="white"/>
<path d="M108.12 153.4L95.5491 155.373C95.1547 155.422 94.8096 155.176 94.711 154.781L94.3166 152.364C94.2673 151.97 94.5138 151.624 94.9082 151.526L107.479 149.553C107.874 149.504 108.219 149.75 108.318 150.145L108.712 152.562C108.81 152.956 108.515 153.301 108.12 153.4Z" fill="white"/>
<path d="M124.734 150.737L112.163 152.71C111.768 152.759 111.423 152.512 111.325 152.118L110.93 149.701C110.881 149.306 111.128 148.961 111.522 148.863L124.093 146.89C124.488 146.84 124.833 147.087 124.931 147.482L125.326 149.898C125.424 150.342 125.128 150.687 124.734 150.737Z" fill="white"/>
<path d="M125.769 158.283L109.254 160.897C108.761 160.995 108.317 160.65 108.268 160.157L107.923 158.036C107.824 157.543 108.17 157.099 108.663 157.05L125.178 154.436C125.671 154.337 126.114 154.682 126.164 155.176L126.509 157.296C126.558 157.74 126.262 158.184 125.769 158.283Z" fill="white"/>
<path d="M61.7299 140.527L60.9411 135.497C60.7439 134.412 61.5327 133.376 62.6173 133.179L72.3785 131.65C73.4631 131.452 74.4984 132.241 74.6956 133.326L75.4843 138.357C75.6815 139.442 74.8928 140.478 73.8082 140.675L64.047 142.204C62.9131 142.402 61.8778 141.612 61.7299 140.527ZM62.7159 133.721C61.9271 133.869 61.3848 134.609 61.4834 135.398L62.2722 140.429C62.4201 141.218 63.1596 141.76 63.9484 141.662L73.7096 140.133C74.4984 139.985 75.0407 139.245 74.9421 138.456L74.1533 133.425C74.0054 132.636 73.2659 132.093 72.4771 132.192L62.7159 133.721Z" fill="white"/>
<path d="M126.799 121.123L126.312 121.199L128.011 131.966L128.498 131.889L126.799 121.123Z" fill="#FF9312"/>
<path d="M91.4079 172.339L91.3093 171.846L130.896 165.582C131.537 165.484 132.08 165.138 132.474 164.645C132.868 164.103 133.016 163.511 132.918 162.87L129.467 141.07L129.96 140.971L133.411 162.771C133.509 163.511 133.361 164.3 132.868 164.941C132.425 165.582 131.734 165.977 130.995 166.076L91.4079 172.339Z" fill="#FF9312"/>
<path d="M84.5134 172.9L69.8569 175.218L69.9339 175.705L84.5903 173.387L84.5134 172.9Z" fill="#FF9312"/>
<path d="M111.571 116.015C111.867 116.113 112.015 116.459 111.916 116.755C111.67 117.297 111.275 117.84 110.98 117.84C110.487 117.889 110.733 117.001 110.93 116.36C110.98 116.113 111.275 115.916 111.571 116.015Z" fill="#FCB47E"/>
<path d="M110.733 116.015C110.93 116.163 111.029 116.409 110.93 116.656C110.733 117.248 110.24 118.086 109.747 117.988C109.451 117.938 109.649 117.051 109.846 116.311C109.944 115.916 110.437 115.818 110.733 116.015Z" fill="#FCB47E"/>
<path d="M109.501 115.719C109.797 115.768 109.994 116.064 109.895 116.36C109.797 116.952 109.451 117.79 108.811 117.988C108.268 118.185 108.564 116.903 108.761 116.113C108.811 115.818 109.106 115.67 109.402 115.719H109.501Z" fill="#FCB47E"/>
<path d="M108.465 115.028C109.008 115.127 109.057 115.62 108.909 115.965C108.663 116.607 108.219 117.297 107.825 117.396C107.381 117.494 107.627 116.459 107.775 115.67C107.874 115.324 108.12 114.979 108.465 115.028Z" fill="#FCB47E"/>
<path d="M55.2717 143.191C55.2717 143.191 47.0881 131.206 59.7579 122.673L67.0049 102.304V102.156C58.5255 102.106 49.4051 107.285 44.4752 114.585C36.2423 126.767 37.0311 141.317 50.8841 148.813L55.2717 143.191Z" fill="white"/>
<path d="M59.4129 125.238L58.9692 125.189L60.2017 118.875L60.6453 118.974L59.4129 125.238Z" fill="#AA5907"/>
<path d="M53.8914 149.011C47.9262 145.755 44.0316 141.021 42.6512 135.299C41.0736 128.74 42.7498 121.342 47.4332 114.486L47.7783 114.733C43.1935 121.49 41.5173 128.789 43.0949 135.201C44.4753 140.823 48.2713 145.459 54.0886 148.616L53.8914 149.011Z" fill="#A55404"/>
<path d="M54.5323 144.177C54.9267 144.522 56.2577 145.607 56.7507 145.706C57.2437 145.805 59.9059 145.903 59.8566 146.446C59.758 147.038 57.9339 146.594 57.9832 147.038C57.9832 147.334 61.582 148.32 61.1876 148.912C60.9411 149.306 58.8706 148.468 58.8213 148.715C58.772 148.961 61.582 149.504 61.2369 150.145C60.8918 150.786 58.2297 149.158 58.0818 149.454C58.0325 149.602 61.2862 150.786 60.9904 151.279C60.6453 151.97 58.1311 150.293 57.9339 150.589C57.8353 150.737 58.8213 151.181 59.3636 151.477C59.6594 151.674 59.5608 151.92 59.3143 151.92C56.8 151.822 53.6449 148.764 53.2505 148.616C52.6589 148.419 52.0673 148.172 51.525 147.925L54.5323 144.177Z" fill="#FCB47E"/>
<path d="M54.5816 128.296L54.1872 128.049C55.3704 125.978 57.1944 124.104 59.6101 122.525L59.8566 122.92C57.5395 124.449 55.7648 126.274 54.5816 128.296Z" fill="#A55404"/>
<path d="M320.796 103.339C320.796 103.487 320.796 103.685 320.796 103.833C321.388 124.794 319.268 141.168 315.62 153.893L304.823 160.601L313.697 159.22L313.944 159.171C309.112 173.178 302.457 182.203 296.147 188.023C292.252 191.673 288.456 194.04 285.35 195.569C285.153 195.668 284.956 195.767 284.759 195.865C284.266 196.112 283.773 196.309 283.329 196.507L277.364 196.802C277.265 196.506 277.216 196.26 277.117 195.964C277.068 195.767 277.019 195.619 276.969 195.421C276.92 195.175 276.822 194.978 276.772 194.731C269.772 167.654 278.596 146.051 290.182 130.663C290.231 130.614 290.231 130.565 290.28 130.515C294.323 125.189 298.661 120.602 302.753 116.755L305.366 123.462L305.76 114.091C312.908 107.877 318.874 104.277 320.353 103.438C320.698 103.389 320.796 103.339 320.796 103.339Z" fill="#FFC999"/>
<path d="M320.993 103.438L320.846 103.833L308.619 129.381L308.373 129.825L305.07 136.828L304.971 137.075L294.372 159.269L294.323 159.319L277.068 195.52L276.772 196.063L276.378 196.901L275.836 196.95L276.279 196.063L276.871 194.83L293.928 159.072L294.224 158.431L320.451 103.537L320.599 103.241L320.993 103.438Z" fill="white"/>
<path d="M320.039 126.529L304.888 136.954L305.112 137.279L320.262 126.854L320.039 126.529Z" fill="white"/>
<path d="M320.104 121.485L308.244 129.646L308.467 129.971L320.327 121.81L320.104 121.485Z" fill="white"/>
<path d="M290.638 130.551L290.247 130.601L293.968 159.312L294.359 159.262L290.638 130.551Z" fill="white"/>
<path d="M275.047 201.488C275.047 201.488 289.146 208.146 309.162 196.211L302.654 193.103L313.254 193.547C321.092 188.073 329.67 179.737 338.593 167.161L336.128 165.977L339.333 166.125C340.812 163.955 342.34 161.686 343.868 159.319C343.868 159.319 338.002 158.776 329.572 159.762L325.233 165.632L326.466 160.206C309.26 162.82 284.216 171.797 275.047 201.488Z" fill="#F9E4D2"/>
<path d="M343.767 159.144L273.875 200.009L274.099 200.393L343.991 159.528L343.767 159.144Z" fill="white"/>
<path d="M325.672 169.941L325.631 170.334L335.635 171.365L335.676 170.973L325.672 169.941Z" fill="white"/>
<path d="M320.885 172.669L320.816 173.058L332.464 175.134L332.534 174.746L320.885 172.669Z" fill="white"/>
<path d="M291.513 175.792L291.168 175.397C297.034 170.169 304.182 166.125 312.415 163.314L312.563 163.807C304.38 166.618 297.33 170.662 291.513 175.792Z" fill="#FF9312"/>
<path d="M151.553 142.402C151.553 142.55 151.602 142.747 151.602 142.895C154.511 163.659 159.342 179.442 165.061 191.377L176.843 196.211L167.871 196.359H167.624C174.723 209.379 182.808 217.172 189.957 221.857C194.443 224.767 198.535 226.494 201.838 227.48C202.035 227.529 202.281 227.628 202.479 227.677C203.021 227.825 203.514 227.973 204.007 228.072L209.923 227.381C209.972 227.085 209.972 226.79 210.021 226.543C210.021 226.346 210.071 226.198 210.071 226C210.12 225.754 210.12 225.507 210.12 225.31C212.536 197.444 200.211 177.617 186.21 164.399C186.161 164.349 186.111 164.3 186.062 164.251C181.181 159.664 176.153 155.866 171.47 152.759L169.991 159.812L168.068 150.638C159.983 145.706 153.475 143.141 151.898 142.55C151.651 142.451 151.553 142.402 151.553 142.402Z" fill="#FFC999"/>
<path d="M151.356 142.55L151.602 142.944L167.92 166.076L168.216 166.519L172.653 172.833L172.801 173.03L186.949 193.153L186.999 193.202L210.071 226L210.416 226.494L210.958 227.283L211.5 227.233L210.958 226.444L210.12 225.31L187.344 192.906L186.9 192.314L151.898 142.55L151.701 142.303L151.356 142.55Z" fill="white"/>
<path d="M156.192 165.198L156.025 165.556L172.704 173.302L172.87 172.945L156.192 165.198Z" fill="white"/>
<path d="M155.238 160.19L155.072 160.548L168.128 166.613L168.294 166.255L155.238 160.19Z" fill="white"/>
<path d="M186.229 164.246L185.835 164.261L186.96 193.189L187.354 193.174L186.229 164.246Z" fill="white"/>
<path d="M213.078 231.574C213.078 231.574 200.31 240.501 178.569 232.067L184.485 227.924L174.082 230.094C165.455 226 155.595 219.194 144.7 208.344L146.968 206.765L143.813 207.406C141.989 205.532 140.115 203.559 138.193 201.439C138.193 201.439 143.911 199.959 152.342 199.515L157.567 204.546L155.447 199.417C172.85 199.121 199.028 203.855 213.078 231.574Z" fill="#F9D6B9"/>
<path d="M138.232 201.277L138.075 201.692L213.803 230.304L213.96 229.889L138.232 201.277Z" fill="white"/>
<path d="M157.821 208.874L148.13 211.563L148.236 211.943L157.927 209.254L157.821 208.874Z" fill="white"/>
<path d="M162.983 210.819L151.844 214.812L151.977 215.184L163.116 211.19L162.983 210.819Z" fill="white"/>
<path d="M192.52 208.985L192.816 208.541C186.161 204.398 178.421 201.537 169.892 200.156L169.793 200.699C178.273 202.08 185.914 204.891 192.52 208.985Z" fill="#FF9312"/>
<path d="M215.888 244.496H201.641C197.006 244.496 193.21 240.895 193.013 236.308L184.977 95.9906C184.78 91.1572 188.724 87.1129 193.605 87.1129H210.021L215.888 244.496Z" fill="#C66F06"/>
<path d="M286.287 95.9906L282.097 236.308C281.899 240.895 278.103 244.496 273.469 244.496H210.366C205.732 244.496 200.26 240.895 200.063 236.308L195.873 95.9906C195.675 91.1572 199.619 87.1129 204.5 87.1129H277.61C282.54 87.1129 286.484 91.1572 286.287 95.9906Z" fill="#FFD199"/>
<path d="M213.275 96.7797H209.923C209.479 96.7797 209.035 96.977 208.74 97.2729C208.444 97.5689 208.247 98.0127 208.247 98.4566C208.247 99.3937 208.986 100.134 209.923 100.134H213.275H268.391H271.744C272.187 100.134 272.631 99.9363 272.927 99.6403C273.223 99.3444 273.42 98.9005 273.42 98.4566C273.42 97.5195 272.68 96.7797 271.744 96.7797H268.391H213.275Z" fill="#603403"/>
<path d="M271.103 152.019H211.057C209.923 152.019 208.986 151.131 208.937 149.948L207.458 110.886C207.409 109.652 208.395 108.666 209.578 108.666H272.582C273.814 108.666 274.751 109.652 274.702 110.886L273.223 149.948C273.173 151.131 272.237 152.019 271.103 152.019Z" fill="white"/>
<path d="M226.044 178.406H216.726C215.099 178.406 213.768 177.074 213.768 175.446V171.205C213.768 169.577 215.099 168.246 216.726 168.246H225.994C227.621 168.246 228.952 169.577 228.952 171.205V175.446C229.001 177.074 227.67 178.406 226.044 178.406Z" fill="#BC6702"/>
<path d="M226.044 194.928H216.726C215.099 194.928 213.768 193.597 213.768 191.969V187.727C213.768 186.1 215.099 184.768 216.726 184.768H225.994C227.621 184.768 228.952 186.1 228.952 187.727V191.969C229.001 193.597 227.67 194.928 226.044 194.928Z" fill="#BC6702"/>
<path d="M226.044 211.451H216.726C215.099 211.451 213.768 210.119 213.768 208.491V204.299C213.768 202.672 215.099 201.34 216.726 201.34H225.994C227.621 201.34 228.952 202.672 228.952 204.299V208.541C229.001 210.119 227.67 211.451 226.044 211.451Z" fill="#BC6702"/>
<path d="M226.044 227.973H216.726C215.099 227.973 213.768 226.642 213.768 225.014V220.772C213.768 219.145 215.099 217.813 216.726 217.813H225.994C227.621 217.813 228.952 219.145 228.952 220.772V225.014C229.001 226.691 227.67 227.973 226.044 227.973Z" fill="#A35704"/>
<path d="M245.319 178.406H236.051C234.424 178.406 233.093 177.074 233.093 175.446V171.205C233.093 169.577 234.424 168.246 236.051 168.246H245.319C246.946 168.246 248.277 169.577 248.277 171.205V175.446C248.277 177.074 246.946 178.406 245.319 178.406Z" fill="#BC6702"/>
<path d="M245.319 194.928H236.051C234.424 194.928 233.093 193.597 233.093 191.969V187.727C233.093 186.1 234.424 184.768 236.051 184.768H245.319C246.946 184.768 248.277 186.1 248.277 187.727V191.969C248.277 193.597 246.946 194.928 245.319 194.928Z" fill="#BC6702"/>
<path d="M245.319 211.451H236.051C234.424 211.451 233.093 210.119 233.093 208.491V204.299C233.093 202.672 234.424 201.34 236.051 201.34H245.319C246.946 201.34 248.277 202.672 248.277 204.299V208.541C248.277 210.119 246.946 211.451 245.319 211.451Z" fill="#BC6702"/>
<path d="M245.319 227.973H236.051C234.424 227.973 233.093 226.642 233.093 225.014V220.772C233.093 219.145 234.424 217.813 236.051 217.813H245.319C246.946 217.813 248.277 219.145 248.277 220.772V225.014C248.277 226.691 246.946 227.973 245.319 227.973Z" fill="#BC6702"/>
<path d="M264.595 178.406H255.327C253.7 178.406 252.369 177.074 252.369 175.446V171.205C252.369 169.577 253.7 168.246 255.327 168.246H264.595C266.222 168.246 267.553 169.577 267.553 171.205V175.446C267.553 177.074 266.222 178.406 264.595 178.406Z" fill="#BC6702"/>
<path d="M264.595 194.928H255.327C253.7 194.928 252.369 193.597 252.369 191.969V187.727C252.369 186.1 253.7 184.768 255.327 184.768H264.595C266.222 184.768 267.553 186.1 267.553 187.727V191.969C267.553 193.597 266.222 194.928 264.595 194.928Z" fill="#BC6702"/>
<path d="M264.595 211.451H255.327C253.7 211.451 252.369 210.119 252.369 208.491V204.299C252.369 202.672 253.7 201.34 255.327 201.34H264.595C266.222 201.34 267.553 202.672 267.553 204.299V208.541C267.553 210.119 266.222 211.451 264.595 211.451Z" fill="#BC6702"/>
<path d="M264.595 227.973H255.327C253.7 227.973 252.369 226.642 252.369 225.014V220.772C252.369 219.145 253.7 217.813 255.327 217.813H264.595C266.222 217.813 267.553 219.145 267.553 220.772V225.014C267.553 226.691 266.222 227.973 264.595 227.973Z" fill="#A35704"/>
<path d="M228.755 178.406H219.487C217.86 178.406 216.529 177.074 216.529 175.446V171.205C216.529 169.577 217.86 168.246 219.487 168.246H228.755C230.382 168.246 231.713 169.577 231.713 171.205V175.446C231.713 177.074 230.431 178.406 228.755 178.406Z" fill="#DE8200"/>
<path d="M228.755 194.928H219.487C217.86 194.928 216.529 193.597 216.529 191.969V187.727C216.529 186.1 217.86 184.768 219.487 184.768H228.755C230.382 184.768 231.713 186.1 231.713 187.727V191.969C231.713 193.597 230.431 194.928 228.755 194.928Z" fill="#DE8200"/>
<path d="M228.755 211.451H219.487C217.86 211.451 216.529 210.119 216.529 208.491V204.299C216.529 202.672 217.86 201.34 219.487 201.34H228.755C230.382 201.34 231.713 202.672 231.713 204.299V208.541C231.713 210.119 230.431 211.451 228.755 211.451Z" fill="#DE8200"/>
<path d="M228.755 227.973H219.487C217.86 227.973 216.529 226.642 216.529 225.014V220.772C216.529 219.145 217.86 217.813 219.487 217.813H228.755C230.382 217.813 231.713 219.145 231.713 220.772V225.014C231.713 226.691 230.431 227.973 228.755 227.973Z" fill="#C46D05"/>
<path d="M248.031 178.406H238.763C237.136 178.406 235.805 177.074 235.805 175.446V171.205C235.805 169.577 237.136 168.246 238.763 168.246H248.031C249.658 168.246 250.989 169.577 250.989 171.205V175.446C250.989 177.074 249.707 178.406 248.031 178.406Z" fill="#DE8200"/>
<path d="M248.031 194.928H238.763C237.136 194.928 235.805 193.597 235.805 191.969V187.727C235.805 186.1 237.136 184.768 238.763 184.768H248.031C249.658 184.768 250.989 186.1 250.989 187.727V191.969C250.989 193.597 249.707 194.928 248.031 194.928Z" fill="#DE8200"/>
<path d="M248.031 211.451H238.763C237.136 211.451 235.805 210.119 235.805 208.491V204.299C235.805 202.672 237.136 201.34 238.763 201.34H248.031C249.658 201.34 250.989 202.672 250.989 204.299V208.541C250.989 210.119 249.707 211.451 248.031 211.451Z" fill="#DE8200"/>
<path d="M248.031 227.973H238.763C237.136 227.973 235.805 226.642 235.805 225.014V220.772C235.805 219.145 237.136 217.813 238.763 217.813H248.031C249.658 217.813 250.989 219.145 250.989 220.772V225.014C250.989 226.691 249.707 227.973 248.031 227.973Z" fill="#DE8200"/>
<path d="M267.307 178.406H258.039C256.412 178.406 255.081 177.074 255.081 175.446V171.205C255.081 169.577 256.412 168.246 258.039 168.246H267.307C268.934 168.246 270.265 169.577 270.265 171.205V175.446C270.265 177.074 268.983 178.406 267.307 178.406Z" fill="#DE8200"/>
<path d="M267.307 194.928H258.039C256.412 194.928 255.081 193.597 255.081 191.969V187.727C255.081 186.1 256.412 184.768 258.039 184.768H267.307C268.934 184.768 270.265 186.1 270.265 187.727V191.969C270.265 193.597 268.983 194.928 267.307 194.928Z" fill="#DE8200"/>
<path d="M267.307 211.451H258.039C256.412 211.451 255.081 210.119 255.081 208.491V204.299C255.081 202.672 256.412 201.34 258.039 201.34H267.307C268.934 201.34 270.265 202.672 270.265 204.299V208.541C270.265 210.119 268.983 211.451 267.307 211.451Z" fill="#DE8200"/>
<path d="M267.307 227.973H258.039C256.412 227.973 255.081 226.642 255.081 225.014V220.772C255.081 219.145 256.412 217.813 258.039 217.813H267.307C268.934 217.813 270.265 219.145 270.265 220.772V225.014C270.265 226.691 268.983 227.973 267.307 227.973Z" fill="#C46D05"/>
<path d="M228.755 178.702H219.487C217.712 178.702 216.282 177.271 216.282 175.496V171.254C216.282 169.479 217.712 168.048 219.487 168.048H228.755C230.53 168.048 231.959 169.479 231.959 171.254V175.496C232.009 177.222 230.579 178.702 228.755 178.702ZM219.487 168.542C218.008 168.542 216.825 169.725 216.825 171.205V175.446C216.825 176.926 218.008 178.11 219.487 178.11H228.755C230.234 178.11 231.417 176.926 231.417 175.446V171.205C231.417 169.725 230.234 168.542 228.755 168.542H219.487Z" fill="white"/>
<path d="M228.755 195.224H219.487C217.712 195.224 216.282 193.794 216.282 192.018V187.777C216.282 186.001 217.712 184.571 219.487 184.571H228.755C230.53 184.571 231.959 186.001 231.959 187.777V192.018C232.009 193.744 230.579 195.224 228.755 195.224ZM219.487 185.064C218.008 185.064 216.825 186.248 216.825 187.727V191.969C216.825 193.449 218.008 194.632 219.487 194.632H228.755C230.234 194.632 231.417 193.449 231.417 191.969V187.727C231.417 186.248 230.234 185.064 228.755 185.064H219.487Z" fill="white"/>
<path d="M228.755 211.747H219.487C217.712 211.747 216.282 210.316 216.282 208.541V204.299C216.282 202.524 217.712 201.093 219.487 201.093H228.755C230.53 201.093 231.959 202.524 231.959 204.299V208.541C232.009 210.267 230.579 211.747 228.755 211.747ZM219.487 201.586C218.008 201.586 216.825 202.77 216.825 204.25V208.491C216.825 209.971 218.008 211.155 219.487 211.155H228.755C230.234 211.155 231.417 209.971 231.417 208.491V204.299C231.417 202.819 230.234 201.636 228.755 201.636H219.487V201.586Z" fill="white"/>
<path d="M228.755 228.269H219.487C217.712 228.269 216.282 226.839 216.282 225.063V220.822C216.282 219.046 217.712 217.616 219.487 217.616H228.755C230.53 217.616 231.959 219.046 231.959 220.822V225.063C232.009 226.839 230.579 228.269 228.755 228.269ZM219.487 218.158C218.008 218.158 216.825 219.342 216.825 220.822V225.063C216.825 226.543 218.008 227.726 219.487 227.726H228.755C230.234 227.726 231.417 226.543 231.417 225.063V220.822C231.417 219.342 230.234 218.158 228.755 218.158H219.487Z" fill="white"/>
<path d="M248.031 178.702H238.763C236.988 178.702 235.558 177.271 235.558 175.496V171.254C235.558 169.479 236.988 168.048 238.763 168.048H248.031C249.806 168.048 251.235 169.479 251.235 171.254V175.496C251.285 177.222 249.855 178.702 248.031 178.702ZM238.763 168.542C237.284 168.542 236.101 169.725 236.101 171.205V175.446C236.101 176.926 237.284 178.11 238.763 178.11H248.031C249.51 178.11 250.693 176.926 250.693 175.446V171.205C250.693 169.725 249.51 168.542 248.031 168.542H238.763Z" fill="white"/>
<path d="M248.031 195.224H238.763C236.988 195.224 235.558 193.794 235.558 192.018V187.777C235.558 186.001 236.988 184.571 238.763 184.571H248.031C249.806 184.571 251.235 186.001 251.235 187.777V192.018C251.285 193.744 249.855 195.224 248.031 195.224ZM238.763 185.064C237.284 185.064 236.101 186.248 236.101 187.727V191.969C236.101 193.449 237.284 194.632 238.763 194.632H248.031C249.51 194.632 250.693 193.449 250.693 191.969V187.727C250.693 186.248 249.51 185.064 248.031 185.064H238.763Z" fill="white"/>
<path d="M248.031 211.747H238.763C236.988 211.747 235.558 210.316 235.558 208.541V204.299C235.558 202.524 236.988 201.093 238.763 201.093H248.031C249.806 201.093 251.235 202.524 251.235 204.299V208.541C251.285 210.267 249.855 211.747 248.031 211.747ZM238.763 201.586C237.284 201.586 236.101 202.77 236.101 204.25V208.491C236.101 209.971 237.284 211.155 238.763 211.155H248.031C249.51 211.155 250.693 209.971 250.693 208.491V204.299C250.693 202.819 249.51 201.636 248.031 201.636H238.763V201.586Z" fill="white"/>
<path d="M248.031 228.269H238.763C236.988 228.269 235.558 226.839 235.558 225.063V220.822C235.558 219.046 236.988 217.616 238.763 217.616H248.031C249.806 217.616 251.235 219.046 251.235 220.822V225.063C251.285 226.839 249.855 228.269 248.031 228.269ZM238.763 218.158C237.284 218.158 236.101 219.342 236.101 220.822V225.063C236.101 226.543 237.284 227.726 238.763 227.726H248.031C249.51 227.726 250.693 226.543 250.693 225.063V220.822C250.693 219.342 249.51 218.158 248.031 218.158H238.763Z" fill="white"/>
<path d="M267.307 178.702H258.039C256.264 178.702 254.834 177.271 254.834 175.496V171.254C254.834 169.479 256.264 168.048 258.039 168.048H267.307C269.082 168.048 270.511 169.479 270.511 171.254V175.496C270.561 177.222 269.131 178.702 267.307 178.702ZM258.039 168.542C256.56 168.542 255.377 169.725 255.377 171.205V175.446C255.377 176.926 256.56 178.11 258.039 178.11H267.307C268.786 178.11 269.969 176.926 269.969 175.446V171.205C269.969 169.725 268.786 168.542 267.307 168.542H258.039Z" fill="white"/>
<path d="M267.307 195.224H258.039C256.264 195.224 254.834 193.794 254.834 192.018V187.777C254.834 186.001 256.264 184.571 258.039 184.571H267.307C269.082 184.571 270.511 186.001 270.511 187.777V192.018C270.561 193.744 269.131 195.224 267.307 195.224ZM258.039 185.064C256.56 185.064 255.377 186.248 255.377 187.727V191.969C255.377 193.449 256.56 194.632 258.039 194.632H267.307C268.786 194.632 269.969 193.449 269.969 191.969V187.727C269.969 186.248 268.786 185.064 267.307 185.064H258.039Z" fill="white"/>
<path d="M267.307 211.747H258.039C256.264 211.747 254.834 210.316 254.834 208.541V204.299C254.834 202.524 256.264 201.093 258.039 201.093H267.307C269.082 201.093 270.511 202.524 270.511 204.299V208.541C270.561 210.267 269.131 211.747 267.307 211.747ZM258.039 201.586C256.56 201.586 255.377 202.77 255.377 204.25V208.491C255.377 209.971 256.56 211.155 258.039 211.155H267.307C268.786 211.155 269.969 209.971 269.969 208.491V204.299C269.969 202.819 268.786 201.636 267.307 201.636H258.039V201.586Z" fill="white"/>
<path d="M267.307 228.269H258.039C256.264 228.269 254.834 226.839 254.834 225.063V220.822C254.834 219.046 256.264 217.616 258.039 217.616H267.307C269.082 217.616 270.511 219.046 270.511 220.822V225.063C270.561 226.839 269.131 228.269 267.307 228.269ZM258.039 218.158C256.56 218.158 255.377 219.342 255.377 220.822V225.063C255.377 226.543 256.56 227.726 258.039 227.726H267.307C268.786 227.726 269.969 226.543 269.969 225.063V220.822C269.969 219.342 268.786 218.158 267.307 218.158H258.039Z" fill="white"/>
<path d="M265.729 244.89H210.366C205.584 244.89 199.915 241.142 199.718 236.358L195.527 95.9906C195.429 93.5739 196.316 91.2558 197.992 89.4803C199.718 87.7047 202.035 86.7183 204.549 86.7183H277.66C280.174 86.7183 282.491 87.7047 284.216 89.4803C285.893 91.2558 286.78 93.5246 286.681 95.9906L286.435 103.635H285.695L285.942 95.9906C286.04 93.7712 285.252 91.6504 283.674 90.0228C282.097 88.3952 279.977 87.4581 277.66 87.4581H204.549C202.232 87.4581 200.112 88.3459 198.535 90.0228C197.006 91.6504 196.168 93.7712 196.267 95.9906L200.457 236.308C200.655 240.698 205.93 244.15 210.366 244.15H265.729V244.89Z" fill="#FF9312"/>
<path d="M285.03 125.192L282.589 206.785L283.328 206.807L285.769 125.214L285.03 125.192Z" fill="#FF9312"/>
<path d="M268.391 69.8012V100.183H213.374V69.8012C213.226 67.7297 212.289 65.8555 210.859 64.4746C209.43 63.1429 207.458 62.3044 205.338 62.3044H260.356C262.476 62.3044 264.447 63.1429 265.877 64.4746C267.307 65.8062 268.244 67.7297 268.391 69.8012Z" fill="white"/>
<path d="M213.374 69.8012H197.253C197.401 67.7297 198.338 65.8555 199.816 64.4746C201.246 63.1429 203.218 62.3044 205.338 62.3044C207.458 62.3044 209.43 63.1429 210.859 64.4746C212.24 65.8555 213.226 67.7297 213.374 69.8012Z" fill="#DE8200"/>
<path d="M268.638 100.429H213.127V69.8012C213.029 67.8777 212.141 66.0528 210.662 64.6719C209.183 63.2909 207.31 62.5511 205.289 62.5511V62.0579H260.306C262.426 62.0579 264.447 62.847 266.025 64.2773C267.603 65.7076 268.49 67.6804 268.638 69.7519V100.429ZM213.62 99.9363H268.145V69.8012C267.997 67.8284 267.159 66.0035 265.68 64.6719C264.201 63.2909 262.328 62.5511 260.306 62.5511H208.099C209.134 62.9456 210.12 63.5375 210.958 64.2773C212.536 65.7076 213.423 67.6804 213.571 69.7519L213.62 99.9363Z" fill="#F98E0D"/>
<path d="M271.793 100.429H209.923C208.838 100.429 208 99.5417 208 98.5059C208 98.0127 208.197 97.5195 208.592 97.1249C208.937 96.7797 209.43 96.5331 209.972 96.5331H213.324V97.0263H209.972C209.578 97.0263 209.233 97.1742 208.937 97.4702C208.641 97.7661 208.493 98.1113 208.493 98.5059C208.493 99.295 209.134 99.9362 209.923 99.9362H271.793C272.187 99.9362 272.533 99.7883 272.828 99.4923C273.124 99.2457 273.272 98.8512 273.272 98.4566C273.272 97.6675 272.631 97.0263 271.842 97.0263H268.49V96.5331H271.842C272.927 96.5331 273.765 97.4209 273.765 98.4566C273.765 98.9991 273.568 99.443 273.173 99.8376C272.779 100.232 272.286 100.429 271.793 100.429Z" fill="#A85A04"/>
<path d="M274.11 246.616C274.11 247.997 284.118 249.082 296.492 249.082C308.866 249.082 318.874 247.948 318.874 246.616C318.874 246.567 318.874 246.567 318.874 246.518V239.81H274.159V246.468C274.11 246.567 274.11 246.616 274.11 246.616Z" fill="#F49B51"/>
<path d="M296.492 242.424C308.853 242.424 318.874 241.32 318.874 239.958C318.874 238.596 308.853 237.492 296.492 237.492C284.131 237.492 274.11 238.596 274.11 239.958C274.11 241.32 284.131 242.424 296.492 242.424Z" fill="#FCC659"/>
<path d="M268.835 238.577C268.835 239.958 278.843 241.043 291.217 241.043C303.591 241.043 313.599 239.909 313.599 238.577C313.599 238.528 313.599 238.528 313.599 238.478V231.771H268.884V238.429C268.835 238.528 268.835 238.528 268.835 238.577Z" fill="#F49B51"/>
<path d="M291.217 234.336C303.578 234.336 313.599 233.231 313.599 231.869C313.599 230.508 303.578 229.403 291.217 229.403C278.856 229.403 268.835 230.508 268.835 231.869C268.835 233.231 278.856 234.336 291.217 234.336Z" fill="#FCC659"/>
<path d="M274.11 230.488C274.11 231.869 284.118 232.955 296.492 232.955C308.866 232.955 318.874 231.82 318.874 230.488C318.874 230.439 318.874 230.439 318.874 230.39V223.682H274.159V230.341C274.11 230.439 274.11 230.488 274.11 230.488Z" fill="#F49B51"/>
<path d="M296.492 226.247C308.853 226.247 318.874 225.143 318.874 223.781C318.874 222.419 308.853 221.315 296.492 221.315C284.131 221.315 274.11 222.419 274.11 223.781C274.11 225.143 284.131 226.247 296.492 226.247Z" fill="#FCC659"/>
<path d="M296.492 249.378C305.612 249.378 319.12 248.638 319.12 246.616H318.578C318.578 247.405 310.986 248.836 296.492 248.836C295.95 248.836 295.457 248.836 294.914 248.836V249.378C295.407 249.378 295.95 249.378 296.492 249.378Z" fill="#FFB164"/>
<path d="M287.618 249.181L287.667 248.639C285.4 248.54 283.329 248.392 281.505 248.195L281.456 248.737C283.23 248.935 285.35 249.082 287.618 249.181Z" fill="#FFB164"/>
<path d="M305.316 240.698C313.697 239.909 313.697 238.873 313.697 238.528H313.155C313.155 238.774 311.725 239.563 305.218 240.155L305.316 240.698Z" fill="#FFB164"/>
<path d="M291.069 241.29C293.583 241.29 296.048 241.24 298.415 241.142V240.599C294.224 240.747 289.541 240.797 285.202 240.649V241.191C287.125 241.24 289.097 241.29 291.069 241.29Z" fill="#FFB164"/>
<path d="M279.632 240.945L279.681 240.402C277.315 240.254 275.195 240.057 273.518 239.81L273.42 240.303C275.145 240.55 277.265 240.747 279.632 240.945Z" fill="#FFB164"/>
<path d="M311.528 225.902C318.972 225.162 318.972 224.175 318.972 223.83H318.43C318.43 223.83 318.233 224.718 311.429 225.408L311.528 225.902Z" fill="#FFB164"/>
<path d="M296.344 226.543C298.908 226.543 301.422 226.494 303.837 226.395V225.852C301.471 225.951 298.957 226 296.393 226C291.808 226 287.372 225.852 283.625 225.556L283.576 226.099C287.322 226.395 291.759 226.543 296.344 226.543Z" fill="#FFB164"/>
<path d="M266.173 222.449C266.173 223.83 276.181 224.915 288.555 224.915C300.929 224.915 310.936 223.781 310.936 222.449C310.936 222.4 310.936 222.4 310.936 222.351V215.643H266.222V222.301C266.173 222.351 266.173 222.4 266.173 222.449Z" fill="#F49B51"/>
<path d="M288.555 218.208C300.916 218.208 310.936 217.104 310.936 215.742C310.936 214.38 300.916 213.276 288.555 213.276C276.194 213.276 266.173 214.38 266.173 215.742C266.173 217.104 276.194 218.208 288.555 218.208Z" fill="#FCC659"/>
<path d="M270.363 215.741C270.363 216.679 278.498 217.418 288.604 217.418C298.661 217.418 306.845 216.679 306.845 215.741C306.845 214.804 298.71 214.065 288.604 214.065C278.498 214.065 270.363 214.804 270.363 215.741Z" fill="#F49B51"/>
<path d="M262.525 75.6704H250.545V77.15H262.525V75.6704Z" fill="#FFD6A9"/>
<path d="M245.024 75.6704H220.966V77.15H245.024V75.6704Z" fill="#FFD6A9"/>
<path d="M262.525 82.0821H234.819V83.5617H262.525V82.0821Z" fill="#FFD6A9"/>
<path d="M231.417 82.0821H220.966V83.5617H231.417V82.0821Z" fill="#FFD6A9"/>
<path d="M257.348 88.9871H246.01V90.4667H257.348V88.9871Z" fill="#FFD6A9"/>
<path d="M241.228 88.9871H220.966V90.4667H241.228V88.9871Z" fill="#FFD6A9"/>
<path d="M240.39 151.674H225.403V152.414H240.39V151.674Z" fill="#FF9312"/>
<path d="M271.103 152.414H246.207V151.674H271.103C272.04 151.674 272.828 150.934 272.878 149.997L274.159 115.818L274.899 115.867L273.617 150.046C273.518 151.329 272.434 152.414 271.103 152.414Z" fill="#FF9312"/>
<path d="M240.455 144.164C248.208 143.855 254.243 137.316 253.934 129.559C253.624 121.802 247.088 115.764 239.335 116.074C231.581 116.383 225.546 122.922 225.856 130.679C226.165 138.436 232.701 144.473 240.455 144.164Z" fill="#DE8200"/>
<path d="M239.354 137.321L232.896 130.663L233.586 129.973L239.059 135.595L246.108 120.996L246.996 121.44L239.354 137.321Z" fill="white"/>
<path d="M119.607 106.792C120.987 107.482 121.924 108.567 122.614 109.948C123.255 108.617 124.241 107.532 125.621 106.792C124.241 106.101 123.304 105.016 122.614 103.635C121.973 105.016 120.987 106.101 119.607 106.792Z" fill="#FFE6A6"/>
<path d="M131.735 126.126C132.523 126.52 133.115 127.161 133.46 127.951C133.854 127.161 134.397 126.52 135.185 126.126C134.397 125.731 133.805 125.09 133.46 124.301C133.115 125.041 132.573 125.682 131.735 126.126Z" fill="#FFE6A6"/>
<defs>
<filter id="filter0_d_132_4" x="-6" y="-14" width="388" height="283" filterUnits="userSpaceOnUse" color-interpolation-filters="sRGB">
<feFlood flood-opacity="0" result="BackgroundImageFix"/>
<feColorMatrix in="SourceAlpha" type="matrix" values="0 0 0 0 0 0 0 0 0 0 0 0 0 0 0 0 0 0 127 0" result="hardAlpha"/>
<feMorphology radius="2" operator="dilate" in="SourceAlpha" result="effect1_dropShadow_132_4"/>
<feOffset dx="8"/>
<feGaussianBlur stdDeviation="6"/>
<feComposite in2="hardAlpha" operator="out"/>
<feColorMatrix type="matrix" values="0 0 0 0 0 0 0 0 0 0 0 0 0 0 0 0 0 0 0.2 0"/>
<feBlend mode="normal" in2="BackgroundImageFix" result="effect1_dropShadow_132_4"/>
<feBlend mode="normal" in="SourceGraphic" in2="effect1_dropShadow_132_4" result="shape"/>
</filter>
<linearGradient id="paint0_linear_132_4" x1="180" y1="255" x2="180" y2="-2.56879e-06" gradientUnits="userSpaceOnUse">
<stop stop-color="#F37335"/>
<stop offset="0.854167" stop-color="#FDC830"/>
</linearGradient>
</defs>
</svg>
