<svg width="13" height="13" viewBox="0 0 13 13" fill="none" xmlns="http://www.w3.org/2000/svg">
<path d="M12.54 9.77999L11.3 8.77999C10.88 8.43999 10.28 8.41979 9.84 8.73998L8.66 9.59999C8.5 9.71999 8.2802 9.69998 8.14 9.55999L6.2 7.79998L4.42 5.83999C4.28 5.69999 4.26 5.47999 4.38 5.31999L5.24 4.13999C5.56 3.69999 5.54 3.09999 5.2 2.67999L4.2 1.43999C3.76 0.879986 2.92 0.839986 2.42 1.33999L1.34 2.41999C1.1 2.65999 0.980003 2.99999 0.980003 3.31999C1.12 5.85999 2.28 8.27999 3.98 9.97999C5.68 11.68 8.08 12.84 10.64 12.98C10.98 13 11.3 12.8598 11.54 12.6198L12.62 11.54C13.16 11.06 13.1 10.22 12.54 9.77999Z" fill="#E88404"/>
</svg>
